<svg width="341" height="256" viewBox="0 0 341 256" fill="none" xmlns="http://www.w3.org/2000/svg">
<path d="M155.878 243.808C156.277 243.846 156.841 243.901 157.091 243.759C157.658 243.34 158.124 242.799 158.452 242.177C158.686 241.42 158.863 240.647 158.982 239.864C159.164 239.374 159.386 238.901 159.647 238.449C159.354 237.895 160.087 237.924 160.589 237.752C160.82 238.112 161.142 238.405 161.523 238.602C161.903 238.799 162.329 238.893 162.758 238.875C163.267 238.924 164.189 238.433 164.08 239.556C164.647 239.75 165.258 239.776 165.839 239.631C166.42 239.486 166.946 239.176 167.353 238.739L166.799 237.718L166.984 237.528L168.599 238.349L167.709 236.783L168.35 234.757L169.306 235.348C169.502 235.477 169.782 235.739 169.885 235.68C170.746 235.252 171.133 235.981 171.683 236.325C172.491 236.89 173.343 237.389 174.233 237.816C174.831 237.932 175.447 237.921 176.041 237.784C176.684 237.736 177.319 237.631 177.95 237.568C178.581 237.505 179.716 237.974 179.444 236.482C179.459 236.332 180.067 236.073 180.406 235.87L180.522 236.103L179.852 236.425L179.828 236.672C180.457 236.634 181.088 236.631 181.718 236.661C182.134 236.656 182.538 236.798 182.859 237.062C183.188 237.537 182.786 237.816 182.302 237.796C181.818 237.777 181.319 237.908 181.425 238.679C181.41 238.83 180.809 239.159 180.44 239.247C180.065 239.251 179.691 239.279 179.321 239.332C181.302 240.52 183.234 239.352 185.182 239.03C185.127 238.541 185.233 238.049 185.484 237.627C185.736 237.204 186.119 236.875 186.575 236.69C186.93 236.613 187.336 236.86 187.823 236.99C188.196 236.809 188.582 236.657 188.978 236.535C189.833 236.314 189.323 235.988 189.065 235.645L190.092 234.929L186.941 234.347L186.966 234.087L188.251 233.727L187.593 232.06L190.722 232.874L190.708 233.011L189.158 233.11L189.721 234.464C190.071 234.333 190.405 234.161 190.714 233.952C191.06 233.681 191.295 233.262 191.652 233.02C191.782 232.938 191.929 232.886 192.082 232.868C192.235 232.849 192.391 232.864 192.537 232.912C193.167 233.19 193.856 233.307 194.543 233.252C195.229 233.198 195.891 232.975 196.469 232.602C196.615 232.533 196.61 232.145 196.692 231.877L199.125 232.279L199.722 230.843L201.869 231.328L201.882 231.191C201.397 230.895 200.883 230.61 200.416 230.274C200.274 230.164 200.261 229.872 200.197 229.672C200.382 229.621 200.631 229.493 200.749 229.56C201.969 230.3 202.745 229.449 203.496 228.872L204.483 229.715L205.786 227.877L206.518 228.916L205.393 229.07L205.369 229.316C205.761 229.285 206.165 229.269 206.559 229.211C206.954 229.152 207.437 229.033 207.975 228.933L207.97 226.693L208.808 226.359L208.624 226.244C208.877 225.847 209.094 225.429 209.273 224.994C209.451 224.444 209.373 223.966 208.562 224.164C208.585 222.922 209.598 223.076 210.235 222.944C210.487 222.953 210.734 223.012 210.962 223.117C211.19 223.222 211.395 223.372 211.565 223.557C212.39 224.356 213.372 225.114 213.349 226.495C213.333 226.659 213.79 226.814 213.965 227.011C214.141 227.208 214.568 227.664 214.505 227.893C214.152 229.241 214.987 229.931 215.905 230.49C217.304 231.413 218.37 232.757 218.949 234.325C219.569 235.403 220.315 236.404 221.174 237.306C221.475 237.679 221.832 238.003 222.233 238.266C222.555 238.408 222.906 238.471 223.257 238.448C223.725 238.493 224.206 238.401 224.654 238.362L224.72 238.825L222.714 239.183C223.469 239.409 223.949 239.621 223.706 240.551C223.63 241.146 223.642 241.748 223.741 242.338L223.476 242.493L224.617 243.184L224.817 242.982L224.819 243.674L226.14 243.373C226.643 244.058 227.404 244.657 227.482 245.287C227.53 246.799 228.989 245.779 229.408 246.621L228.155 246.652L228.007 246.886C229.719 247.274 230.416 248.682 231.374 249.826C231.584 249.959 231.783 250.108 231.97 250.271C232.149 250.427 232.248 250.699 232.432 250.8C233.456 251.272 234.512 251.693 235.605 252.158C235.596 252.254 235.658 252.619 235.841 252.734C236.267 253.107 236.765 253.389 237.305 253.562C237.845 253.736 238.414 253.798 238.979 253.743C239.015 253.733 239.055 253.737 239.089 253.754C240.338 255.189 241.199 254.041 242.06 253.185C242.135 253.123 242.321 253.072 242.311 253.029C242.15 251.825 243.09 252.303 243.543 252.07C243.786 251.828 244.063 251.622 244.366 251.459C244.544 251.476 244.832 251.656 245.071 251.776L246.162 251.259L245.753 252.478L245.086 251.763L244.71 252.487C245.054 252.521 245.428 252.82 245.726 252.752C246.307 252.523 246.901 252.327 247.505 252.164L247.257 252.568C248.134 253.69 248.298 251.715 249.031 252.174L249.174 253.57L249.438 253.706L250.234 252.802L251.02 253.431C251.25 253.633 251.482 253.821 251.684 254.035C251.571 254.181 251.451 254.322 251.323 254.456L252.783 254.722L252.264 255.639L253.694 255.211L253.505 255.013L254.605 253.834L253.447 251.454L253.702 251.119C254.073 251.155 254.435 251.287 254.818 251.352C254.967 251.356 255.117 251.347 255.265 251.326C255.253 251.144 255.219 250.965 255.164 250.791C255.164 250.791 254.93 250.768 254.883 250.681C254.64 250.325 254.427 249.945 254.183 249.59L255.492 249.122L255.012 249.919L256.279 250.318L256.063 249.108L254.982 248.367L256.431 247.747L256.821 249.306C257.578 249.379 257.62 249.231 257.31 248.275C258.232 248.364 258.259 248.367 258.049 250.103L258.405 249.446L259.822 250.012L259.296 249.269L261.605 248.373C261.399 248.022 261.216 247.658 261.058 247.283C260.878 246.851 260.455 246.34 261.562 245.949L260.532 245.407L262.377 244.991C262.344 245.334 262.312 245.663 262.279 246.005C262.246 246.347 261.994 247.083 262.162 247.21C262.703 247.65 262.991 247.111 263.24 246.693C263.248 246.61 263.428 246.614 263.336 246.702L263.153 245.15L263.5 245.017C264.106 245.781 264.104 247.371 265.912 246.634C265.951 246.223 266.243 245.504 266.059 245.113C265.875 244.722 265.031 244.405 264.389 244.011L266.356 242.197L265.003 241.831L265.04 241.447L266.985 241.29C266.152 241.859 268.244 242.629 266.357 242.902L268.232 243.319L269.177 242.028L268.82 241.703L271.828 241.04C271.483 240.302 271.183 239.664 270.899 239.015C269.896 238.765 269.411 239.327 269.165 240.146L268.281 239.812C268.315 240.603 268.904 240.688 269.372 240.443C270.146 240.048 270.633 240.33 271.323 240.95L268.86 240.711L269.532 241.371L268.253 241.247L267.326 239.774L268.289 239.868C268.58 239.71 268.844 239.507 269.07 239.266C269.616 238.503 270.225 238.659 270.88 239.068L271.843 239.023L271.678 238.855C271.818 238.703 272.068 238.561 272.113 238.385C272.31 237.679 272.427 236.953 272.461 236.221C272.357 235.608 272.177 235.01 271.926 234.441L272.289 232.982L272.918 235.09L274.214 234.469C273.522 233.019 274.064 230.721 271.42 230.492L271.355 229.726L272.285 229.733C271.622 229.406 271.525 229.12 271.982 228.417C272.439 227.715 271.811 227.17 271.555 226.523C271.063 225.287 270.002 225.64 269.117 225.457C268.708 225.376 268.328 225.186 268.017 224.908L272.509 225.703L272.622 225.534L271.439 224.853L272.521 224.432L272.415 223.371L273.447 223.471L274.457 222.933L274.448 223.029C274.803 222.675 275.178 222.342 275.572 222.032C276.319 221.496 276.338 221.014 275.362 220.338C275.715 220.345 276.068 220.333 276.42 220.303C276.709 220.331 277.002 220.179 277.37 220.104L276.993 218.975C277.895 218.98 277.896 218.98 277.934 219.869C277.934 219.869 277.92 220.019 277.918 220.033C278.6 220.168 279.341 220.544 279.926 220.38C280.511 220.215 280.57 220.179 280.775 220.642C280.769 220.71 281.119 220.675 281.284 220.691C281.5 220.655 281.713 220.607 281.923 220.546L281.747 221.22C282.491 221.43 283.272 221.482 284.037 221.373C284.298 221.285 284.579 221.271 284.848 221.334C285.117 221.397 285.363 221.533 285.558 221.728C285.925 222.001 286.364 222.163 286.821 222.195C287.278 222.227 287.735 222.128 288.137 221.908L288.782 223.133C289.207 222.637 289.552 222.078 289.804 221.475C289.842 221.078 289.458 220.599 289.321 220.295C289.044 220.434 288.782 220.699 288.662 220.646C288.288 220.469 287.941 220.239 287.631 219.965C287.092 219.512 286.583 219.034 286.147 218.66L287.548 217.814L286.438 216.517L285.826 216.237C285.826 216.237 285.826 216.237 285.744 216.229C285.661 216.221 285.744 216.229 285.744 216.229L285.831 216.334L286.42 216.557L287.574 215.687L287.529 215.144L288.74 215.261L289.391 216.416L289.281 217.553C289.639 217.588 290.114 217.703 290.337 217.545C291.003 216.989 291.636 216.395 292.232 215.765L289.797 215.529L290.703 215.064C290.442 214.827 290.207 214.563 290.001 214.277C289.967 214.173 289.955 214.064 289.965 213.955C289.976 213.847 290.009 213.742 290.063 213.647C290.074 213.524 290.395 213.513 290.568 213.447C290.54 213.735 291.214 213.51 290.925 214.062C290.911 214.199 291.473 214.71 291.788 215.045C292.102 215.379 292.367 215.654 292.62 215.913C292.901 215.014 293.17 215.967 293.511 216.18C293.951 215.213 293.643 214.81 292.79 214.727C292.833 214.289 292.87 213.905 292.991 213.516C293.008 213.338 293.027 213.146 293.046 212.954L293.458 212.994C293.9 212.416 294.384 211.871 294.908 211.365C295.207 211.18 295.566 211.116 295.911 211.186C296.709 211.263 297.268 210.792 297.01 210.02C296.751 209.248 296.47 208.71 296.153 207.974L297.398 207.445L297.372 206.571L296.044 205.944L296.832 205.26L295.083 204.538L295.443 203.688L295.711 204.654C296.265 204.505 296.807 204.317 297.334 204.092C297.991 203.769 297.926 203.002 297.378 202.354C297.012 201.933 296.747 201.435 296.603 200.896C296.49 200.281 296.439 199.655 296.45 199.029C296.744 198.435 296.982 197.988 297.193 197.525C297.379 197.172 297.509 196.793 297.58 196.401C297.64 195.784 297.563 195.141 297.568 194.519C297.575 194.179 297.608 193.84 297.666 193.505L297.056 193.211C297.985 192.942 298.912 192.686 297.689 191.696L298.259 191.544L298.463 191.301L297.624 190.929L298.248 189.939L297.966 189.981L297.564 188.684L296.858 188.38L298.696 187.176C299.336 187.888 299.872 188.23 300.54 187.064C300.808 186.592 301.722 186.473 302.433 186.155L302.43 186.902L304.052 186.215L304.222 186.896L304.332 186.906L304.446 185.728L305.047 186.409C305.637 186.051 305.637 186.051 308.582 186.751L308.718 186.502L307.189 185.8L307.206 185.622L308.612 185.441L308.038 184.777L309.153 184.733C309.43 183.736 309.919 182.843 311.313 183.366C312.172 182.384 313.205 183.466 314.113 183.125C314.329 183.05 314.774 183.618 315.329 184.045C316.408 183.943 316.023 182.481 316.837 181.813L315.643 181.38L319.884 179.025L318.705 178.441C318.865 178.221 319.076 177.91 319.31 177.642C319.545 177.375 319.813 177.179 320.225 176.804C320.252 176.517 319.545 175.798 320.522 175.451C320.482 175.148 320.372 174.858 320.202 174.604C319.88 174.341 319.522 174.125 319.139 173.962C319.348 173.825 319.568 173.707 319.798 173.611C320.061 173.528 320.303 173.391 320.508 173.208C320.714 173.026 320.878 172.802 320.99 172.552C321.103 172.301 321.16 172.03 321.159 171.756C321.158 171.481 321.099 171.21 320.986 170.96C320.845 170.333 320.786 169.691 320.81 169.049C320.766 168.644 320.624 168.243 320.608 167.84C320.568 166.813 321.366 166.033 321.575 165.169C321.783 164.304 322.863 163.911 322.562 162.858C322.511 162.674 323.116 162.304 323.42 162.029L322.165 161.368L323.76 159.241L322.575 158.712L322.706 158.365L325.069 159.202C324.745 158.77 324.464 158.308 324.231 157.821C324.009 157.247 324.151 156.929 324.921 157.003C325.224 157.033 325.566 156.651 325.891 156.447C325.094 156.37 324.152 156.777 323.608 155.797C323.791 155.658 324.004 155.563 324.231 155.52C324.458 155.477 324.691 155.487 324.913 155.551C325.135 155.614 325.339 155.728 325.509 155.884C325.679 156.039 325.81 156.232 325.891 156.447C326.289 156.149 326.637 155.791 326.925 155.386C327.317 154.636 327.745 154.083 328.663 154.352L329.023 153.654L329.816 154.353L331.861 153.168C332.595 152.756 333.324 152.398 334.057 151.999C334.278 151.868 334.413 151.618 334.609 151.458C335.133 151.066 335.635 150.478 336.217 150.341C336.756 150.263 337.274 150.081 337.742 149.803C338.209 149.526 338.617 149.16 338.943 148.725C339 148.624 339.036 148.512 339.047 148.396C339.058 148.281 339.045 148.164 339.008 148.054C338.938 147.909 338.608 147.877 338.389 147.842C338.173 147.862 337.956 147.801 337.781 147.672L338.284 147.5C338.373 146.937 338.428 146.37 338.448 145.801C338.442 145.012 338.951 144.771 339.53 144.523C339.764 144.408 340.072 143.954 340 143.836C339.521 142.905 340.314 141.737 339.301 140.878C339.045 140.646 339.29 139.84 339.287 139.301L339.026 139.275L339.883 137.879C339.101 137.347 338.145 136.895 338.475 135.641L339.163 135.708C339.176 135.571 339.187 135.461 339.194 135.393C338.966 134.873 338.068 134.399 339.124 133.823C338.733 132.984 340.005 131.89 338.714 131.17C338.632 131.162 338.749 130.814 338.683 130.628C338.647 130.002 338.593 129.416 337.409 129.454C338.737 129.071 338.232 128.414 337.872 128.116C337.179 127.154 336.734 126.038 336.576 124.865C336.054 122.608 335.161 120.451 333.931 118.484C333.402 117.783 333.284 116.707 332.661 116.121C331.987 115.364 331.477 114.477 331.164 113.514C330.414 111.935 329.812 110.272 329.077 108.68C328.343 107.088 327.543 105.6 326.75 104.044C325.908 102.275 325.123 100.485 324.281 98.7161C324.018 98.2765 323.724 97.8554 323.403 97.4558V97.4558L323.095 97.7716L323.508 96.664C323.522 96.5133 323.479 96.2464 323.373 96.1946C322.596 95.7598 322.793 94.8663 322.439 94.2236C322.327 93.8492 322.366 93.4463 322.548 93.1004C322.724 92.5883 322.755 92.0378 322.637 91.5093C322.519 90.9807 322.257 90.4946 321.88 90.1043C321.664 89.7592 321.536 89.3672 321.505 88.9618C321.461 88.4865 321.377 88.0158 321.253 87.5547C320.294 85.4153 319.318 83.3021 318.285 81.2108C317.856 80.3396 317.267 79.5359 316.643 78.5214C317.208 77.4284 315.911 76.6252 315.541 75.5662C314.668 73.2555 313.637 70.9985 312.591 68.754C311.314 66.0307 309.979 63.3295 308.674 60.6036C308.601 60.3746 308.516 60.1495 308.42 59.9291C308.129 59.4998 307.808 59.0816 307.526 58.6948L307.953 58.5841C306.723 56.9577 306.533 54.7547 305.356 53.4376C304.943 52.25 304.69 51.2852 304.264 50.3728C303.333 48.1021 302.191 45.9223 300.855 43.8617C299.344 41.6827 299.076 39.002 297.473 36.9246C297.066 36.3875 297.237 35.3394 296.028 35.4987L296.706 35.0943C296.712 35.0258 296.72 34.9436 296.724 34.9025C295.675 33.5563 295.408 31.7192 293.945 30.485C294 29.2044 293.872 28.9432 292.68 28.2054L292.925 27.8282C291.821 25.896 291.236 23.7653 289.603 22.2796C289.088 21.6697 288.608 21.0323 288.163 20.3702C287.845 20.0512 287.49 19.7708 287.106 19.5348C287.125 19.3294 287.163 18.9458 286.962 18.719C286.12 17.4679 285.154 16.3042 284.078 15.2454C283.104 14.4044 282.625 13.1827 281.571 12.4582C281.17 12.2182 280.755 12.0026 280.328 11.8124L281.001 11.4627L277.992 8.40574L276.422 8.41948C276.706 7.06433 275.847 6.46948 275.095 5.77439C275.086 5.87027 275.077 5.96613 274.972 6.03899L274.849 6.02699L275.051 5.79777C274.254 5.56842 273.437 5.40624 272.674 5.11106C272.246 4.94511 271.279 5.18321 271.674 4.11535L270.97 3.92269L269.465 3.69383C268.929 3.64183 268.403 3.48026 267.737 3.33273L267.411 2.38864L266.449 2.57195L267.871 4.09244L266.654 4.04358L266.814 3.39538L263.898 2.68405L263.925 2.3964L265.011 2.65374C264.579 1.67159 262.98 1.54433 261.491 2.58903L262.679 2.78722L262.282 3.59216C261.608 3.52682 261.209 3.48813 261.148 2.54198C261.115 2.02715 260.255 1.58434 259.544 0.893248C259.56 1.73817 259.535 2.27505 259.598 2.77885C259.695 3.26072 259.825 3.73535 259.988 4.19934L260.579 4.25667L260.562 4.43476L259.444 4.50617C259.546 5.60833 258.802 5.82664 257.747 5.9732L259.432 7.78197L259.287 7.98914L257.674 7.15527C257.461 7.20376 257.107 7.4183 256.991 7.32411C256.37 6.84916 255.85 7.35176 255.573 7.62912C255.296 7.90647 255.399 8.56632 255.282 9.05278C255.262 9.25826 255.122 9.56263 254.979 9.60408C254.643 9.66159 254.301 9.67033 253.963 9.63003L253.961 8.49609C253.406 8.63587 252.964 8.7589 253.119 9.45145C253.112 9.51994 252.992 9.61888 252.941 9.71076C252.705 10.1441 251.777 10.2616 252.313 11.0326C252.313 11.0326 252.172 11.337 252.039 11.4208C251.192 12.0024 250.325 12.6373 249.531 13.0859C249.043 12.679 248.446 12.2479 247.911 11.7535C247.376 11.2592 246.856 11.4577 246.398 12.0355C245.83 12.7779 245.177 13.4523 244.453 14.0455C244.215 14.2159 243.557 13.8342 243.099 13.693C243.089 13.7285 243.085 13.7657 243.088 13.8025C243.047 14.2272 243.007 14.6381 242.966 15.0628C242.581 14.8609 242.231 14.5982 241.931 14.2849C241.599 13.838 240.995 13.6273 240.795 13.8291C240.437 14.3343 240.17 14.8981 240.008 15.4951L241.147 15.4948L241.124 15.7277C240.647 15.7782 240.166 15.8699 239.721 15.882C239.029 15.8631 238.34 15.7962 237.657 15.682C237.479 15.6647 237.263 15.3119 237.202 15.0847C237.122 14.6222 237.07 14.1554 237.045 13.6869L235.274 14.4831L235.776 14.7529C235.343 14.9184 234.854 14.9539 234.663 15.1982C234.329 15.751 234.036 16.3281 233.788 16.9246L234.076 17.1047L233.027 17.6114C232.688 16.666 231.97 16.9143 231.326 17.1146C231.154 17.1671 231.053 17.4892 230.923 17.684L231.807 18.3089C231.189 18.5255 230.825 18.4074 230.893 17.7087C230.35 17.5658 229.788 17.5114 229.229 17.5474C228.746 17.6527 227.986 17.6205 227.918 18.4574C227.904 18.6081 227.697 18.7401 227.573 18.8664C227.236 19.1932 226.605 19.5468 226.615 19.8659C226.449 20.9365 226.161 21.9847 225.757 22.9906C225.743 23.1412 226.07 23.3389 226.411 23.69L224.423 24.0088C224.542 24.1609 224.647 24.3238 224.737 24.4955C224.91 24.858 225.066 25.2465 225.224 25.6213C224.856 25.8038 224.465 25.9378 224.061 26.0202C223.366 26.0129 222.674 26.0897 221.998 26.2488L223.518 27.3225C222.672 27.5463 221.812 27.7124 220.943 27.8196C220.723 27.7982 220.452 27.3018 220.147 27.1479C219.544 26.8854 218.979 26.5423 218.469 26.1279C217.314 24.7603 216.043 23.4944 214.67 22.3444C214.063 21.8708 213.7 21.4623 212.856 22.0027L212.265 20.2171L211.27 20.6045L211.362 20.3646L208.884 19.1427L208.19 18.8542L208.565 18.2821L206.708 18.1021L206.341 17.0157L204.93 17.2522L204.774 17.7073L204.532 17.3382L204.942 17.2673C204.713 17.1291 204.467 17.0216 204.209 16.9474C203.814 16.8805 203.414 16.8417 203.013 16.8314L203.645 15.6068C203.201 15.6383 202.759 15.6971 202.323 15.7828C201.048 16.1846 200.538 15.8587 200.491 14.6235C200.456 14.5212 200.395 14.4293 200.315 14.3563C200.235 14.2833 200.137 14.2315 200.032 14.2057C198.972 14.103 197.913 14.0003 196.813 13.8936L196.913 14.5809L194.024 14.3009C194.358 14.0187 194.648 13.6878 194.883 13.3194C195.17 12.6421 194.677 12.1518 193.924 12.1757C193.172 12.1996 192.237 11.8186 191.785 12.7565L190.464 12.0615L190.387 12.856C189.286 13.0397 189.084 12.9786 187.81 11.6521L186.765 12.8367C186.32 11.4109 185.317 12.4475 184.576 12.3481C184.288 12.3201 183.201 12.2148 183.117 13.0777C182.657 13.0583 182.197 13.0138 181.742 12.9444L182.044 14.8403L180.243 15.0806L180.314 15.2119L180.198 15.1177C179.87 14.8965 179.521 14.7097 179.155 14.5603C178.774 14.4877 178.387 14.4502 177.999 14.4483C178.389 16.1591 176.499 15.6026 176.246 16.4906L174.618 14.9501C173.45 15.9707 173.669 17.2917 173.393 18.4263C174.747 18.7789 174.89 17.2994 175.815 16.7807L176.364 19.143C176.109 19.1275 175.853 19.1541 175.607 19.2217C175.289 19.343 174.828 19.5195 174.761 19.7758C174.559 20.4337 174.18 20.3279 173.721 20.2003C173.261 20.0728 172.86 19.9095 173.213 19.28C173.288 19.013 173.315 18.7346 173.292 18.4581L172.931 18.8932L172.836 17.8608L171.683 19.021L171.861 19.0384L170.391 21.7442L171.259 22.1049L170.35 22.1688L170.842 23.9725C170.459 24.0353 170.11 24.2253 169.85 24.5115C169.59 24.7977 169.436 25.1633 169.411 25.5484C169.267 26.3226 167.887 26.9493 166.949 27.453C166.744 27.5713 166.106 26.9841 165.636 26.6758L161.269 23.3074C161.277 23.2252 161.477 22.885 161.321 22.7732C160.621 21.9725 160.221 20.7999 158.927 20.6883C157.854 20.5842 157.325 19.7311 156.693 19.0891C156.582 18.9065 156.429 18.7523 156.247 18.6387C156.065 18.5251 155.86 18.4552 155.646 18.4345C155.432 18.4138 155.217 18.4429 155.017 18.5195C154.817 18.596 154.637 18.718 154.492 18.8757C154.39 17.2066 153.052 16.98 151.622 16.6894L152.962 15.8929L150.844 15.259C149.953 14.9929 149.523 14.564 150.228 13.5953L148.78 13.3443L148.926 11.8376L148.72 11.8176L147.414 13.5438L147.501 10.7868L146.674 11.5778C146.623 11.0921 146.506 10.6155 146.325 10.1613C146.089 9.88525 145.763 9.70167 145.404 9.64328C144.917 9.55735 144.425 9.50965 143.932 9.50061L144.105 10.7204C143.159 10.8442 142.203 10.8627 141.253 10.7758C140.271 10.5976 140.993 10.0178 141.213 9.61046C140.333 9.2348 139.873 10.1166 139.196 10.369C139.038 10.4228 139.115 11.2045 139.135 11.8563L135.256 12.0473C134.771 11.6131 136.133 11.0261 134.893 10.7815L135.773 10.4382L135.344 10.2859C135.584 9.67314 135.822 9.07404 136.087 8.49132C136.103 8.32694 136.414 8.1221 136.494 8.15749C136.68 8.25675 136.83 8.41154 136.923 8.60008C137.136 9.02344 137.498 9.35353 137.94 9.52664C138.383 9.69974 138.873 9.70354 139.318 9.53735L137.525 8.83813L137.417 8.52344L137.596 8.54077L137.561 8.89694L138.99 8.48236L138.673 6.87541L137.707 7.39013L135.682 5.64526L134.285 7.45936C133.518 7.50152 132.749 7.46405 131.99 7.34758C131.302 7.12012 130.642 6.81492 130.023 6.43794C129.733 6.28532 129.459 6.10665 129.183 5.94167L128.998 6.26946L130.445 7.10105C129.898 7.26837 129.316 7.2921 128.756 7.17002C128.196 7.04794 127.677 6.78416 127.25 6.40414C127.022 6.27447 126.77 6.19435 126.509 6.16907C126.248 6.14378 125.985 6.17391 125.736 6.25747C126.901 7.14074 128.295 7.67403 129.753 7.79443L129.381 8.04874L129.451 8.19373L131.368 7.60531L131.439 7.87492C130.596 8.125 129.938 9.04292 128.799 8.32419C128.513 8.13047 127.823 8.36783 127.386 8.57439C126.95 8.78096 126.405 8.96316 126.107 8.45038C125.567 7.43017 124.657 7.50785 123.702 7.62265L124.544 8.10525L122.503 8.23935L123.649 7.16129C123.485 6.98198 123.276 6.84901 123.044 6.77586C122.812 6.7027 122.564 6.69196 122.327 6.74471C122.089 6.79747 121.87 6.91183 121.691 7.07625C121.512 7.24067 121.38 7.4493 121.308 7.68099C121.265 8.14435 121.286 8.61132 121.368 9.06948L117.771 7.64233C117.568 8.09353 117.34 8.53304 117.088 8.9588C116.881 9.22297 116.618 9.43829 116.318 9.58939C115.837 9.79759 115.376 10.0491 114.94 10.3407C114.316 10.1972 114.014 9.00657 113.095 9.47049C112.476 9.91697 111.92 10.4445 111.443 11.0387L112.12 11.5053L110.912 12.9369L110.674 12.665C110.47 13.4886 109.768 13.7109 109.083 13.8934C108.918 13.8774 108.676 13.6603 108.48 13.5308L108.742 13.1137L108.729 12.3934C106.514 12.1787 106.109 12.3469 106.065 13.2276C105.945 14.4741 106.344 14.7894 108.092 14.8067L106.62 15.6734C107.053 16.5391 107.13 17.5386 106.836 18.4597C106.41 19.1236 106.163 19.9569 105.187 20.1388C104.96 20.186 104.854 20.7149 104.611 20.9264C103.824 21.5968 103.02 22.1549 102.218 22.8376C103.027 23.5106 102.093 24.1253 102.211 24.911C102.379 25.19 103.518 25.0377 102.96 25.9238L100.902 25.2404C101.124 25.5128 101.314 25.8095 101.469 26.1249C101.454 26.2756 101.433 26.4948 101.414 26.6866C101.222 26.6679 100.96 26.6426 100.875 26.5237C100.202 25.5873 99.0746 25.326 98.2841 24.5995C98.3837 23.5721 98.6571 22.3265 96.764 22.0877L97.4637 21.6025L97.3776 21.3453L94.445 21.9459L92.8858 20.4121C91.954 20.4246 91.0278 20.2645 90.1544 19.9399C89.2709 19.3411 88.2323 19.0099 87.1642 18.9864C86.8788 18.9609 86.6083 18.8477 86.3902 18.6625C85.9995 18.4039 85.6376 18.1046 85.3104 17.7697C85.0349 17.457 84.7793 17.1275 84.5452 16.783C83.6574 16.8088 82.7723 16.8939 81.8961 17.0378C81.4124 17.1568 81.0318 17.6453 80.704 17.8763C80.2195 17.7308 79.7223 17.6317 79.2191 17.5802C78.2606 17.5841 77.3177 17.7139 76.4293 17.7108C76.1679 17.6855 75.9003 17.4383 75.6358 17.302L74.7034 16.8936C74.7281 18.0713 74.3643 18.2434 73.3738 18.1474C72.7407 18.1364 72.1088 18.2053 71.4933 18.3523C71.41 18.3636 71.3252 18.3554 71.2457 18.3283L70.1571 18.0984C70.1571 18.0984 70.173 17.934 70.1046 17.637L69.1861 17.6586L70.6663 19.005L70.2475 19.1718L69.9842 20.1695C69.4963 20.1256 69.0063 20.1103 68.5167 20.124C68.3884 20.1336 68.2635 20.1699 68.15 20.2303C68.0366 20.2907 67.9371 20.374 67.8578 20.4749C67.5886 20.9604 67.5187 21.8248 66.7658 20.853C66.7658 20.853 66.4761 20.977 66.3306 21.0459C66.9631 21.8262 65.6404 22.2925 66.0187 23.1173C66.1546 23.4347 65.6834 23.9974 65.5282 24.4525C65.4226 24.8067 65.3502 25.1701 65.312 25.5377C65.1199 26.0005 64.98 26.4831 64.8948 26.9767C64.8271 27.6753 64.7514 28.4561 65.7778 28.6109L63.6311 28.9836C64.0126 29.5082 64.363 30.0547 64.6805 30.6201C64.6953 30.7374 64.6823 30.8565 64.6426 30.968C64.6029 31.0794 64.5375 31.1799 64.4517 31.2616C63.4576 31.9672 62.4661 32.6454 61.4773 33.2962C61.1811 33.4264 60.8688 33.517 60.5486 33.5657C59.7695 34.1538 60.6574 35.5949 59.2513 36.2053C58.8349 36.3927 58.4717 36.6801 58.1943 37.0417C57.9169 37.4034 57.734 37.8279 57.6619 38.2774C57.5982 38.9349 56.4073 39.331 55.55 39.5798C55.4125 39.5665 55.3145 39.8612 55.1885 40.0149C55.0625 40.1686 55.1752 40.1518 55.1686 40.2203L55.0417 40.0974C54.3126 40.0268 54.4423 40.5509 54.4491 40.9111C54.5011 41.2504 54.5998 41.5811 54.7426 41.8936C54.9984 42.6927 54.6205 43.1538 53.7911 43.1149C53.4472 43.0816 53.1033 43.0482 52.7594 43.0149C52.7594 43.0149 52.6631 43.0056 52.4945 43.169L54.6309 44.1918L54.3372 44.357L54.9603 46.3808L54.2996 46.6071C54.0413 46.6927 53.772 46.7495 53.2732 46.8809L54.4024 47.6956C54.009 47.8295 53.6296 48.001 53.2696 48.208C52.7989 48.4803 52.5771 48.763 53.1607 49.3312C53.7444 49.8994 53.6585 50.4994 53.9657 51.0546C54.2729 51.6098 54.4638 51.9325 54.8259 52.0644C56.3845 52.6026 56.4895 53.9541 56.5901 55.2082C56.6417 55.8216 56.8278 56.3374 57.3119 56.3567C58.2061 56.4434 58.4562 57.5876 59.3947 57.3605L59.3506 58.5315L60.7784 59.8452C61.3647 60.386 61.8646 60.9599 61.4991 61.8647L62.8203 62.5596C63.005 62.6605 63.2748 62.742 63.329 62.8993C64.0268 64.199 64.924 65.3823 65.9883 66.4064C66.2241 66.6303 66.491 66.8192 66.7809 66.9672L66.5335 67.3718C66.8357 67.6915 67.2271 67.9507 67.3604 68.2954C67.7214 69.2983 68.0944 70.1779 69.352 70.3828C69.5314 70.4394 69.6964 70.5342 69.8354 70.6606C69.9745 70.787 70.0843 70.9419 70.1574 71.1147C70.2304 71.2875 70.265 71.474 70.2585 71.6612C70.2521 71.8485 70.2048 72.0322 70.1201 72.1994C69.6977 72.8161 69.2279 73.3992 68.7152 73.9437C68.0842 72.4307 67.5734 73.833 67.0644 73.7837C66.7654 72.5639 66.1272 71.4525 65.223 70.5771L64.6236 71.0306L65.1904 71.4865L65.4438 71.594L65.3493 71.7093L65.1451 71.5236C64.1929 71.7493 63.658 72.5409 63.8136 73.8004L62.6315 73.9624C62.7504 74.1675 62.8557 74.3712 62.976 74.5627L62.3801 74.8367L62.5863 73.9994L61.5683 73.9008L61.4435 75.1884C61.1533 75.0486 60.8452 74.949 60.528 74.8923C60.1352 74.9017 59.75 75.0016 59.4027 75.1842C59.2997 75.2433 59.3482 75.7458 59.4743 76.0207C59.6595 76.6885 58.5793 77.6623 57.7748 77.6535C56.9702 77.6446 55.9022 77.7762 54.977 77.8662C55.6398 79.0505 56.5644 78.3934 57.3689 78.4023L57.3012 79.1009L58.4603 79.0335L58.5917 79.2536L57.2079 80.3501L57.099 81.4733L57.2921 81.6303L57.8794 80.8715L58.3585 81.8028C57.2642 81.918 56.805 82.3574 57.225 83.3246L57.8794 84.4526L56.9378 84.1401L57.2099 83.3369C57.0134 83.4538 56.8446 83.6116 56.715 83.7995C56.5854 83.9875 56.4982 84.201 56.4593 84.4258C56.4204 84.6505 56.4306 84.881 56.4895 85.1015C56.5483 85.3219 56.6542 85.5271 56.8001 85.7031L55.041 85.2283L53.5604 86.1772L54.6855 86.6042L54.6629 86.8371C54.3226 86.9421 53.9654 86.9826 53.6099 86.9563C52.974 86.784 52.7842 87.1666 52.4954 87.5672C52.2108 87.9285 51.8994 88.2681 51.5638 88.583L51.2811 88.3483C51.6594 87.5968 52.0652 86.848 52.3899 86.0775C52.4045 85.9268 52.2202 85.5356 52.0466 85.4635C51.7528 85.3747 51.4442 85.3448 51.1388 85.3755C51.1388 85.3755 51.0443 85.4908 51.1242 85.5262C51.6277 86.7779 50.8681 87.0223 49.8613 87.381C48.8546 87.7397 48.5748 88.7634 49.4488 89.7746C49.2114 89.9313 48.9767 90.0606 48.7531 90.2187C48.5295 90.3768 48.2691 90.6281 48.305 90.6869C48.805 91.6894 47.4342 91.7916 47.4176 92.5366C47.4176 92.5366 46.9086 92.4873 46.8252 92.6313C46.5577 93.0899 46.3214 93.5659 46.1178 94.056L43.1971 94.1048L42.8521 94.9424L42.6319 94.9211L42.8787 96.6734L40.9057 96.3992L40.3455 95.4461L39.4346 96.1045L39.4599 95.8442L37.604 95.2219L37.3362 96.1223L36.0422 96.149L36.0542 96.0257C35.2914 95.8081 34.5129 95.6495 33.7257 95.5511C33.4919 95.5285 33.2147 96.0962 33.0434 96.287L31.9687 96.0583L31.809 94.8399L31.2725 94.7879L30.2283 97.8254L30.5137 98.0328L32.3737 97.4664L32.9153 98.6113L32.246 99.5004L30.796 98.558L30.3829 98.8082C30.3518 99.2682 30.3488 99.7297 30.374 100.19C30.3581 100.354 30.5787 100.514 30.6754 100.662L31.0258 100.198L31.4699 101.347L31.5524 101.355L31.4654 101.25C30.9463 101.448 30.2334 100.494 29.797 101.558L31.0005 102.034L30.9846 102.199L29.7785 102.179C29.923 103.41 28.9722 103.622 28.1168 103.995L28.5799 105.519L27.7906 105.927L28.7843 106.562L27.5015 106.618C27.1163 106.58 26.5918 106.405 26.3597 106.507C26.0005 106.79 25.7292 107.169 25.5769 107.6C25.4246 108.03 25.3976 108.495 25.499 108.94L23.981 108.986L24.0133 110.372C23.5981 110.158 23.2087 109.898 22.8527 109.596C22.0276 108.797 21.6322 109.008 20.8071 109.785C19.9819 110.562 19.8779 111.921 18.5588 112.208C18.4762 112.2 18.5203 112.605 18.3877 112.827L17.8618 112.666L15.9773 116.493L17.5913 116.746L17.574 116.924L17.0806 117.001C16.675 117.031 16.1589 116.912 15.8887 117.12C15.3155 117.59 14.879 118.225 14.3405 118.768C14.1404 118.97 13.8112 119.214 13.5635 119.19C12.8345 119.12 12.729 119.635 12.8458 120.006C13.2255 121.245 12.7502 122.568 13.1529 123.713C13.3423 124.509 13.3709 125.335 13.2369 126.141C13.1705 126.426 13.0645 126.699 12.9221 126.954C13.5411 127.014 13.3808 128.381 14.6631 127.759C13.8948 128.666 14.5051 129.389 14.5488 130.085C14.5536 131.468 15.4543 131.057 15.8301 131.191C15.7823 131.684 15.6448 132.099 15.5735 132.548C15.5795 132.774 15.5577 132.999 15.5084 133.22C15.0552 134.171 15.1618 134.361 16.2964 134.402C15.902 134.438 15.5326 134.61 15.2521 134.888C14.9716 135.166 14.7976 135.534 14.7601 135.926C14.6041 136.533 13.8845 137.224 14.0261 137.625C14.257 138.394 13.8029 139.069 14.0405 139.769C14.1065 139.88 14.1454 140.004 14.154 140.132C14.1626 140.26 14.1407 140.388 14.0899 140.506C14.0392 140.623 13.9612 140.728 13.8622 140.81C13.7633 140.892 13.6462 140.949 13.5206 140.977C12.7229 141.329 12.0335 141.995 11.2299 142.262C10.4264 142.53 10.1341 143.11 10.5687 143.927C9.74696 144.096 9.00063 144.203 8.28493 144.424C7.9415 144.529 7.67313 144.863 7.36035 145.081C7.16238 145.213 6.95611 145.331 6.74277 145.436C5.92196 145.882 5.25286 146.481 4.3535 146.878C3.87431 147.094 4.14641 149.015 4.66793 149.508L2.2939 151.365L4.15413 151.656C2.74397 151.879 2.12743 152.939 1.18244 153.664L2.12283 153.99L0.920806 155.933L1.24878 156.131L1.64929 155.437C2.14802 155.306 2.68834 156.464 2.4787 157.481L3.34536 157.565L2.86049 158.126C3.59846 159.968 4.88703 161.572 3.60871 163.73L5.50653 163.347C5.59264 163.82 5.78899 164.266 6.0798 164.649C6.37062 165.033 6.74776 165.343 7.18087 165.555C8.21144 166.466 9.14161 167.483 9.95549 168.59C10.7314 169.467 11.5073 170.344 12.209 171.269C12.6321 171.768 12.9536 172.344 13.1555 172.965C13.2686 173.586 13.518 174.174 13.8859 174.688C14.2538 175.201 14.731 175.628 15.2835 175.937C15.6665 176.14 15.8544 176.78 16.0596 177.243C16.2647 177.705 16.3682 178.213 16.9849 178.01L17.6029 179.369L17.7782 179.138L18.596 181.014C18.1249 181.577 17.8362 181.978 17.4866 182.289C17.318 182.486 17.0906 182.624 16.8375 182.683C16.3951 182.65 15.9538 182.759 15.5785 182.994C15.2032 183.23 14.9138 183.579 14.7527 183.99C14.5916 184.402 14.5673 184.854 14.6835 185.28C14.7996 185.707 15.0501 186.085 15.398 186.359C15.7886 186.771 16.3487 187.295 16.9525 186.51C17.4439 187.456 18.1647 188.328 17.3334 189.312L17.3215 189.436L17.1977 189.424L16.6788 188.903C16.4575 189.324 16.2375 189.732 16.037 190.224C16.0205 190.289 16.0185 190.357 16.0313 190.422C16.0442 190.488 16.0715 190.55 16.1113 190.604C16.627 191.014 17.1441 191.41 17.6775 191.779C17.7996 191.851 17.8999 191.955 17.9679 192.079C18.0359 192.203 18.069 192.342 18.0639 192.483C18.0588 192.625 18.0155 192.762 17.9387 192.88C17.8618 192.999 17.7543 193.094 17.6273 193.157L19.587 193.997C19.5764 194.107 19.5552 194.326 19.4514 194.537C19.4027 194.719 19.4081 194.912 19.467 195.091L20.0423 194.027L20.7174 194.798L20.532 194.849C20.508 195.326 20.5798 195.803 20.7431 196.252C20.851 196.429 21.5227 196.231 22.1187 196.386L20.1554 197.301L21.3833 197.669C21.0109 198.933 22.4862 198.468 22.8876 199.198L21.9109 199.103L22.106 200.242L22.4467 200.164L22.1555 199.445L24.136 199.927L23.5585 200.728C23.7001 201.225 23.8907 201.707 24.1273 202.166C24.296 202.432 24.7144 202.555 25.0548 202.768L24.3773 202.882C25.4247 203.536 25.8289 205.097 27.4619 205.296L27.0703 204.609L27.3818 204.404C27.6544 204.886 27.8147 205.524 28.2336 205.786C29.0964 206.34 28.4743 207.745 29.6512 208.067C29.7887 208.08 29.7933 208.606 29.8839 208.96C30.8152 210.24 32.5635 209.967 34.1096 210.49C33.3798 211 32.906 211.59 32.1701 210.73L31.8445 211.653C32.7527 212.598 33.6978 212.303 34.7698 211.701L34.4834 212.794L35.2074 212.629L34.9434 212.202L35.2304 212.106L35.2665 212.593L36.3221 212.446L36.7026 213.106C36.4137 213.078 36.0285 213.04 35.8986 213.235C35.7686 213.43 35.7176 213.812 35.6334 214.108C35.8806 214.132 36.1299 214.119 36.3731 214.069C36.8319 213.853 37.2775 213.61 37.7073 213.341L37.9285 214.496C38.4871 214.177 39.0341 213.691 39.4417 214.643C39.4311 214.753 40.0057 214.698 40.047 214.702C40.5141 215.756 40.923 216.695 41.3634 217.595C41.4136 217.662 41.4766 217.718 41.5487 217.761C41.6209 217.803 41.7007 217.831 41.7837 217.843C42.6091 217.923 43.4483 218.004 44.2736 218.084C44.6908 218.07 45.0997 218.203 45.428 218.46C45.7563 218.717 45.9829 219.082 46.0676 219.489C46.0913 219.609 46.1414 219.723 46.2142 219.823C46.2869 219.922 46.3807 220.004 46.4889 220.063C46.597 220.123 46.7169 220.158 46.84 220.166C46.9632 220.174 47.0866 220.155 47.2015 220.11C48.1174 219.881 49.0622 219.786 50.0059 219.829C50.4469 219.941 50.8343 220.203 51.1003 220.571C51.542 221.116 51.9504 221.686 52.3232 222.28C52.7767 222.185 53.5072 222.242 53.9282 221.91C54.2917 221.61 54.7561 221.459 55.2276 221.486C55.6991 221.514 56.1426 221.719 56.4687 222.059C56.727 222.248 57.0261 222.373 57.3418 222.425C57.6575 222.477 57.981 222.455 58.2863 222.36C59.1652 222.319 60.0454 222.404 60.9 222.613L61.2264 221.539C62.2107 221.867 63.1649 222.279 64.0786 222.769C64.9476 223.379 65.7503 224.078 66.4732 224.854C67.3893 225.717 68.2574 226.645 69.1721 227.522C69.4469 227.689 69.7423 227.82 70.0509 227.911L69.6393 228.576C70.6046 229.361 71.8179 229.88 71.9891 231.265C71.9639 231.526 71.9347 231.827 72.0222 232.071C72.1097 232.314 72.3446 233.042 72.6752 233.212C73.392 233.521 74.1352 233.764 74.8958 233.939C75.0608 235.532 75.0635 235.504 77.1515 236.025C77.6866 236.227 78.1925 236.499 78.656 236.834L78.444 237.159C78.9352 237.178 79.4139 237.319 79.8361 237.57C80.2582 237.821 80.6101 238.174 80.8596 238.596C81.578 239.212 82.4183 239.67 83.3258 239.941C83.7954 240.131 84.2757 240.293 84.7645 240.427C84.8883 240.439 85.1018 240.528 85.1497 240.464C85.7889 239.6 86.8576 240.035 87.7095 239.841L87.6504 239.448L85.0527 239.459L85.0713 239.267L85.9929 238.928L84.957 238.44L85.8976 237.619L85.8046 238.578C86.5327 238.372 87.2321 238.177 87.8311 238.014C87.9549 238.026 88.1475 238.044 88.2895 238.155C87.9067 238.809 88.6974 238.817 88.796 239.089C89.2059 240.304 90.227 240.085 91.0954 240.294C91.4667 240.406 91.7907 240.636 92.0176 240.95C91.4344 240.52 90.992 240.214 90.7122 241.238C90.691 241.457 90.2361 241.565 90.021 241.78C89.9071 241.939 89.8239 242.119 89.7754 242.309L91.1775 242.168L91.0927 241.897L94.1373 240.713L95.0398 242.003L95.069 241.702L98.3568 242.021L98.614 241.658L98.741 241.781L98.383 242.037L98.6614 243.032L99.0053 243.065L99.4541 241.588L100.733 241.712C100.825 240.767 101.306 240.385 101.987 240.81C103.132 241.46 103.461 241.368 104.158 240.191C104.773 240.721 104.768 240.775 103.908 241.619L104.656 242.355C104.876 241.809 105.051 241.439 105.174 241.022C105.197 240.887 105.248 240.759 105.324 240.645C105.399 240.531 105.498 240.434 105.614 240.36C105.73 240.287 105.86 240.238 105.996 240.218C106.131 240.198 106.27 240.206 106.402 240.243C106.882 240.232 107.357 240.153 107.814 240.006L107.377 238.498C107.875 238.367 109.019 238.892 108.86 237.522L107.233 237.544L107.265 237.215C108.689 236.855 110.031 235.755 111.735 236.515C111.872 236.528 112.346 236.228 112.453 235.976C113.068 234.653 113.593 233.39 114.218 232.096C114.948 232.677 115.743 233.172 116.588 233.57C117.3 233.628 118.015 233.58 118.713 233.43C119.956 233.357 120.559 234.01 120.635 235.234C120.603 235.563 121.086 235.872 121.383 236.247L120.441 236.944L122.561 238.421L122.322 237.015L123.802 237.795L124.385 238.944C124.988 240.177 125.536 241.392 126.321 242.892C126.917 242.888 127.512 242.946 128.096 243.064C128.59 243.3 129.055 243.591 129.484 243.932C130.156 244.301 130.781 244.873 131.678 244.504C131.774 244.513 132.171 244.718 132.185 244.857C132.238 245.457 132.052 246.227 133.03 246.17C133.583 246.112 134.131 246.012 134.669 245.872C134.751 246.461 135.075 246.7 135.882 246.543C136.279 246.457 136.804 246.909 137.214 247.128C137.623 247.348 137.913 247.5 138.244 247.671C138.493 245.966 139.982 245.074 141.873 245.617C143.112 245.95 144.375 246.183 145.651 246.315C146.105 246.359 146.607 245.771 147.014 245.299L145.085 245.43L145.115 245.115L147.283 244.814L146.448 244.401L146.463 244.25L147.187 244.224C146.442 243.46 147.906 243.685 147.833 243.152L147.751 244.997C148.184 245.247 148.663 245.407 149.159 245.467C149.655 245.527 150.159 245.485 150.638 245.346C151.118 245.206 151.564 244.971 151.95 244.654C152.335 244.337 152.652 243.946 152.881 243.503L153.005 243.792C152.958 243.937 152.902 244.079 152.839 244.218C152.827 244.342 152.733 244.457 152.542 244.853L155.852 243.791L155.878 243.808ZM175.188 20.9647L175.296 21.2794L175.112 21.0266L175.13 20.8485L175.188 20.9647ZM206.797 228.045L206.544 227.937C206.544 227.937 206.638 227.822 206.652 227.823L206.858 227.995L206.928 228.126L206.797 228.045ZM339.834 143.115L338.58 142.73L338.732 142.441L339.82 143.113L339.902 143.121L339.834 143.115ZM279.878 217.292L279.984 217.205C279.984 217.205 279.984 217.205 279.901 217.197C280.019 217.845 279.607 218.081 279.092 218.1C278.716 218.065 278.346 217.983 277.991 217.855L278.092 217.672L279.878 217.292ZM292.386 212.019C291.706 213.17 290.763 212.152 289.993 212.506L289.88 212.233L290.492 211.504L290.543 211.841L292.386 212.019ZM188.976 13.9498L185.358 13.5991C185.575 13.2192 185.867 12.9295 186.1 12.9658C187.163 13.1657 188.207 13.4328 189.224 13.6835L188.961 13.9622L188.953 14.0443L188.976 13.9498ZM135.046 12.497C135.051 12.52 135.049 12.544 135.039 12.5655V12.5655L135.142 12.5063C136.587 11.9274 137.782 12.2091 138.264 13.3897L136.262 13.4169L136.289 13.1429L137.182 12.9529L137.207 12.6926L135.046 12.497ZM96.5216 239.036L96.5428 238.817L99.6518 239.118C99.6024 239.234 99.5405 239.344 99.4673 239.446C99.1057 239.881 98.9436 241.123 98.1454 239.76C98.0846 239.671 97.6436 239.781 97.3867 239.853C97.1713 239.928 96.9657 240.029 96.7743 240.153L96.6541 239.961L97.2636 239.26C96.9714 239.188 96.7066 239.032 96.5016 238.813L96.4936 238.895L96.4111 238.887C96.4111 238.887 96.3653 238.786 96.4404 239.014L96.5216 239.036ZM145.002 10.0607L146.931 11.5059C146.417 11.94 146.417 11.94 147.437 13.5875C145.516 13.6364 145.516 13.6364 145.049 13.1624L146.424 13.2957L146.516 13.0696L145.043 11.9313C145.885 11.4046 145.502 10.7728 144.982 10.1278L144.912 9.98283L145.002 10.0607ZM126.543 9.54342L130.023 9.88078L129.826 10.1936C130.125 10.4023 130.424 10.763 130.741 10.78C131.326 10.7458 131.909 10.6729 132.484 10.5618C132.747 10.5601 133.01 10.5856 133.268 10.6378L132.861 11.262L133.668 11.8104C133.266 11.9512 132.88 12.2042 132.778 12.1113C132.597 11.8943 132.456 11.6465 132.363 11.3797L128.401 10.9957L128.411 10.8998L129.716 10.9019C128.571 9.53265 127.011 10.1557 125.655 9.81692L126.46 9.53542L125.106 9.18295L125.35 8.66737L126.543 9.54342ZM128.658 12.7904L128.704 12.3109C129.255 12.3643 129.812 12.4875 130.356 12.6093C130.899 12.7311 131.202 12.8988 131.71 12.9618C132.218 13.0248 132.75 12.6893 132.967 13.457C133.244 13.4567 133.521 13.4326 133.794 13.385L133.723 14.111L133.558 14.095L133.839 15.0625C132.904 14.5431 132.146 14.0549 131.319 13.6982C130.493 13.3416 129.53 13.1099 128.658 12.7904ZM184.516 235.73C186.012 234.616 186.66 234.956 188.376 236.021L185.067 236.488L184.516 235.73ZM109.625 234.789L109.531 234.614L112.579 232.96L112.745 233.253L112.331 233.517L112.588 234.44C112.281 234.542 111.967 234.622 111.649 234.681C110.976 234.74 110.294 234.757 109.625 234.789V234.789ZM234.45 236.283L233.836 235.173C235.072 234.449 235.338 236.01 235.853 235.991C235.259 235.532 234.932 237.906 233.728 236.573L234.45 236.283ZM188.947 16.3944C189.327 16.1962 189.813 15.7731 190.052 15.8793C190.89 16.3315 191.699 16.8348 192.475 17.3862L192.344 17.5947L188.947 16.3944ZM132.393 8.35448C132.777 8.97247 132.833 9.54476 132.244 9.88867C131.819 10.1405 131.317 10.2294 130.831 10.1389C130.501 10.1069 130.294 9.51992 129.874 8.98145C130.843 9.15831 131.96 9.95789 132.338 8.34914L132.393 8.35448ZM106.589 238.034C106.602 238.325 106.574 238.615 106.505 238.897C106.36 239.15 106.183 239.384 105.979 239.593C105.764 239.379 105.549 239.164 105.35 238.924C105.151 238.683 105.016 238.504 104.669 238.07L106.589 238.034ZM105.985 235.805L106.025 235.394L108.799 235.428L108.041 236.378L105.985 235.805ZM281.922 15.7139C282.4 15.5303 282.908 15.4343 283.421 15.4306C283.724 15.46 283.918 16.0319 284.164 16.3599C283.355 16.5442 282.514 16.9052 281.922 15.7139ZM104.145 236.456C105.276 236.248 106.409 236.593 106.599 237.206L105.413 237.561L104.145 236.456ZM277.439 216.24C278.883 216.38 279.076 216.398 278.742 217.126L277.737 216.462C277.383 217.105 277.178 217.79 275.994 217.399L277.439 216.24ZM153.959 242.695L153.808 242.819C153.312 242.451 152.845 242.045 152.412 241.605C152.262 241.438 152.355 241.047 152.342 240.755C152.631 240.783 153.043 240.823 153.173 241.057C153.474 241.583 153.737 242.131 153.959 242.695V242.695ZM144.454 17.2943C145.57 16.3793 145.57 16.3793 147.591 17.4463L144.454 17.2943ZM311.149 181.193L311.183 180.837L313.103 180.511L313.583 181.429L311.149 181.193ZM230.248 245.403L229.457 243.819C231.195 244.084 231.195 244.084 230.227 245.332L230.248 245.403ZM142.935 13.6212L143.061 13.3292C143.737 13.6575 144.387 13.9694 145.062 14.3114C145.062 14.3114 145.02 14.7497 145.018 14.7634C144.662 14.8533 144.2 15.0436 143.95 14.8949C143.701 14.7463 143.706 14.2629 143.567 13.8346L142.935 13.6212ZM128.794 239.012C128.397 239.236 128.121 239.513 127.826 239.54C127.507 239.485 127.199 239.381 126.912 239.23C126.604 239.117 126.279 239.031 125.713 238.851C126.483 238.926 127.07 239.176 127.502 239.025C127.933 238.873 128.351 238.139 128.768 238.995L128.794 239.012ZM175.202 233.831L175.223 233.612C175.813 233.745 176.395 233.912 176.966 234.113C177.159 234.131 177.245 234.527 177.377 234.747C177.115 234.722 176.778 234.91 176.593 234.809C176.099 234.51 175.625 234.178 175.176 233.815L175.202 233.831ZM246.594 250.527C247.046 250.216 247.593 250.074 248.14 250.127C248.686 250.18 249.196 250.424 249.579 250.816L246.594 250.527ZM283.449 18.8625L286.118 19.1211C284.648 19.8221 284.648 19.822 283.449 18.8625ZM224.132 233.721L221.875 234.083L221.748 233.669L223.933 233.052L224.02 233.157L223.521 233.288L224.132 233.721ZM181.594 234.216L181.728 234.547C181.132 235.54 180.407 235.718 179.73 234.961L181.594 234.216ZM164.755 235.031L164.606 235.417C163.972 234.803 162.753 235.625 162.272 234.14L164.755 235.031ZM41.2599 215.082L41.2851 214.822L41.9267 214.649L41.3231 214.286L41.5076 213.958L43.1923 214.772L43.0694 215.036L41.2599 215.082ZM231.776 246.256C230.903 247.098 230.301 247.15 229.792 245.953L231.776 246.256ZM268.292 235.969C268.435 237.504 267.326 236.774 266.935 237.22L266.721 236.853L268.292 235.969ZM155.508 239.748L156.53 239.087L156.685 240.637L155.508 239.748ZM28.8522 104.716L28.8694 104.538C29.2226 104.468 29.5797 104.42 29.9388 104.393C30.0041 104.601 30.0531 104.814 30.0855 105.029L28.8522 104.716ZM134.512 12.2793L134.347 12.2633L134.245 11.8801L134.418 11.814L134.512 12.2793ZM236.207 234.919L235.629 234.863L236.207 234.919ZM270.636 229.407L270.819 229.674L270.467 229.861L270.307 229.652L270.636 229.407ZM253.407 253.303L253.536 253.122C253.606 253.166 253.671 253.219 253.729 253.279C253.729 253.279 253.714 253.429 253.714 253.429C253.605 253.406 253.501 253.363 253.407 253.303V253.303ZM65.6729 29.6931L65.6623 29.8027L65.3184 29.7693L65.329 29.6598L65.6729 29.6931ZM172.681 19.3252L172.914 19.2096C172.914 19.2096 172.983 19.3545 172.968 19.3669C172.905 19.4188 172.835 19.4632 172.761 19.4989L172.681 19.3252ZM318.815 173.723L318.806 173.819L318.815 173.723ZM230.913 244.983L230.921 244.901L230.816 244.988L230.913 244.983ZM228.504 18.7216L228.51 18.653L228.655 18.7362L228.504 18.7216C228.504 18.7216 228.501 18.749 228.476 18.7189L228.504 18.7216ZM174.688 20.8195C174.716 20.8746 174.738 20.9324 174.755 20.9919L174.686 20.9852C174.655 20.9363 174.632 20.8827 174.618 20.8265L174.688 20.8195ZM55.0933 40.7108L55.1824 40.6503L55.2504 40.809L55.0933 40.7108Z" fill="#402057"/>
</svg>
